<mxfile host="app.diagrams.net" modified="2021-01-28T00:19:59.280Z" agent="5.0 (Macintosh; Intel Mac OS X 10_15_7) AppleWebKit/537.36 (KHTML, like Gecko) Chrome/88.0.4324.96 Safari/537.36" etag="lO3ecZcnHV0LX6acM7-q" version="14.2.7" type="github">
  <diagram id="4WrwShbYJq_vmNUnG8Tp" name="Page-1">
    <mxGraphModel dx="2253" dy="1972" grid="1" gridSize="10" guides="1" tooltips="1" connect="1" arrows="1" fold="1" page="1" pageScale="1" pageWidth="827" pageHeight="1169" math="0" shadow="0">
      <root>
        <mxCell id="0" />
        <mxCell id="1" parent="0" />
        <mxCell id="1CSto419G5NZSqjnDY_Q-3" value="" style="ellipse;whiteSpace=wrap;html=1;aspect=fixed;" vertex="1" parent="1">
          <mxGeometry x="-4" y="-288" width="688" height="688" as="geometry" />
        </mxCell>
        <mxCell id="1CSto419G5NZSqjnDY_Q-2" value="" style="rounded=0;whiteSpace=wrap;html=1;" vertex="1" parent="1">
          <mxGeometry x="225" y="320" width="230" height="60" as="geometry" />
        </mxCell>
      </root>
    </mxGraphModel>
  </diagram>
</mxfile>
